<?xml version="1.0" encoding="UTF-8"?>
<svg xmlns="http://www.w3.org/2000/svg" width="102.508" height="71.219" viewBox="0 0 102.508 71.219">
  <g>
    <g>
      <path d="M91.593,24.675l-14.261-14.261c-3.396-3.396-7.361-6.028-11.782-7.821C61.473.94,57.391.075,52.988,0l-6.571,15.445h6.359c4.956.151,9.868,2.108,13.642,5.883l14.261,14.261-3.413,3.413-10.848,10.848c-3.775,3.775-8.686,5.732-13.642,5.883h-23.45l-6.571,15.486h30.022v-.041c4.403-.075,8.699-.94,12.774-2.592,4.422-1.794,8.386-4.425,11.782-7.821l2.179-2.179,4.262-4.262,7.82-7.82h0l10.914-10.914-10.914-10.914Z" fill="#000" stroke-width="0"/>
      <polygon points="16.893 71.157 47.071 .062 30.178 .062 0 71.157 16.893 71.157" fill="#000" stroke-width="0"/>
    </g>
  </g>
</svg>